PathFileType	4	(X/Y/Z)	C:/Users/Carlo/Dropbox/Carlos/SARAH/CongressoMarcha2025/WorkshopOpenSim/C3D/Caso03/pyCGM2 Static.c3d.trc
DataRate	CameraRate	NumFrames	NumMarkers	Units	OrigDataRate	OrigDataStartFrame	OrigNumFrames
100.000000	100.000000	3	128	mm	100.000000	0	422
Frame#	Time	LASI			RASI			LPSI			RPSI			LTHI			LTHAP			LTHAD			LKNE			LKNM			LTIB			LTIAP			LTIAD			LANK			LMED			LHEE			LTOE			RTHI			RTHAP			RTHAD			RKNE			RKNM			RTIB			RTIAP			RTIAD			RANK			RMED			RHEE			RTOE			PELO			PELA			PELL			PELP			LFEO			LFEA			LFEL			LFEP			LTIO			LTIA			LTIL			LTIP			LFOO			LFOA			LFOL			LFOP			LTOO			LTOA			LTOL			LTOP			RFEO			RFEA			RFEL			RFEP			RTIO			RTIA			RTIL			RTIP			RFOO			RFOA			RFOL			RFOP			RTOO			RTOA			RTOL			RTOP			PELVIS_CGM_2.3O			PELVIS_CGM_2.3A			PELVIS_CGM_2.3L			PELVIS_CGM_2.3P			LFEMUR_CGM_2.3O			LFEMUR_CGM_2.3A			LFEMUR_CGM_2.3L			LFEMUR_CGM_2.3P			LTIBIA_CGM_2.3O			LTIBIA_CGM_2.3A			LTIBIA_CGM_2.3L			LTIBIA_CGM_2.3P			LFOOT_CGM_2.3O			LFOOT_CGM_2.3A			LFOOT_CGM_2.3L			LFOOT_CGM_2.3P			LTOES_CGM_2.3O			LTOES_CGM_2.3A			LTOES_CGM_2.3L			LTOES_CGM_2.3P			RFEMUR_CGM_2.3O			RFEMUR_CGM_2.3A			RFEMUR_CGM_2.3L			RFEMUR_CGM_2.3P			RTIBIA_CGM_2.3O			RTIBIA_CGM_2.3A			RTIBIA_CGM_2.3L			RTIBIA_CGM_2.3P			RFOOT_CGM_2.3O			RFOOT_CGM_2.3A			RFOOT_CGM_2.3L			RFOOT_CGM_2.3P			RTOES_CGM_2.3O			RTOES_CGM_2.3A			RTOES_CGM_2.3L			RTOES_CGM_2.3P			LHipAngles			LKneeAngles			LAbsAnkleAngle			LAnkleAngles			RHipAngles			RKneeAngles			RAnkleAngles			RAbsAnkleAngle			LPelvisAngles			RPelvisAngles			LFootProgressAngles			RFootProgressAngles			LHipAngles_CGM_2.3			LKneeAngles_CGM_2.3			LAnkleAngles_CGM_2.3			RHipAngles_CGM_2.3			RKneeAngles_CGM_2.3			RAnkleAngles_CGM_2.3			LFootProgressAngles_CGM_2.3			RFootProgressAngles_CGM_2.3			LPelvisAngles_CGM_2.3			RPelvisAngles_CGM_2.3			LHJC_CGM_2.3			LKJC_CGM_2.3			RHJC_CGM_2.3			RKJC_CGM_2.3			LAJC_CGM_2.3			RAJC_CGM_2.3			
		X1	Y1	Z1	X2	Y2	Z2	X3	Y3	Z3	X4	Y4	Z4	X5	Y5	Z5	X6	Y6	Z6	X7	Y7	Z7	X8	Y8	Z8	X9	Y9	Z9	X10	Y10	Z10	X11	Y11	Z11	X12	Y12	Z12	X13	Y13	Z13	X14	Y14	Z14	X15	Y15	Z15	X16	Y16	Z16	X17	Y17	Z17	X18	Y18	Z18	X19	Y19	Z19	X20	Y20	Z20	X21	Y21	Z21	X22	Y22	Z22	X23	Y23	Z23	X24	Y24	Z24	X25	Y25	Z25	X26	Y26	Z26	X27	Y27	Z27	X28	Y28	Z28	X29	Y29	Z29	X30	Y30	Z30	X31	Y31	Z31	X32	Y32	Z32	X33	Y33	Z33	X34	Y34	Z34	X35	Y35	Z35	X36	Y36	Z36	X37	Y37	Z37	X38	Y38	Z38	X39	Y39	Z39	X40	Y40	Z40	X41	Y41	Z41	X42	Y42	Z42	X43	Y43	Z43	X44	Y44	Z44	X45	Y45	Z45	X46	Y46	Z46	X47	Y47	Z47	X48	Y48	Z48	X49	Y49	Z49	X50	Y50	Z50	X51	Y51	Z51	X52	Y52	Z52	X53	Y53	Z53	X54	Y54	Z54	X55	Y55	Z55	X56	Y56	Z56	X57	Y57	Z57	X58	Y58	Z58	X59	Y59	Z59	X60	Y60	Z60	X61	Y61	Z61	X62	Y62	Z62	X63	Y63	Z63	X64	Y64	Z64	X65	Y65	Z65	X66	Y66	Z66	X67	Y67	Z67	X68	Y68	Z68	X69	Y69	Z69	X70	Y70	Z70	X71	Y71	Z71	X72	Y72	Z72	X73	Y73	Z73	X74	Y74	Z74	X75	Y75	Z75	X76	Y76	Z76	X77	Y77	Z77	X78	Y78	Z78	X79	Y79	Z79	X80	Y80	Z80	X81	Y81	Z81	X82	Y82	Z82	X83	Y83	Z83	X84	Y84	Z84	X85	Y85	Z85	X86	Y86	Z86	X87	Y87	Z87	X88	Y88	Z88	X89	Y89	Z89	X90	Y90	Z90	X91	Y91	Z91	X92	Y92	Z92	X93	Y93	Z93	X94	Y94	Z94	X95	Y95	Z95	X96	Y96	Z96	X97	Y97	Z97	X98	Y98	Z98	X99	Y99	Z99	X100	Y100	Z100	X101	Y101	Z101	X102	Y102	Z102	X103	Y103	Z103	X104	Y104	Z104	X105	Y105	Z105	X106	Y106	Z106	X107	Y107	Z107	X108	Y108	Z108	X109	Y109	Z109	X110	Y110	Z110	X111	Y111	Z111	X112	Y112	Z112	X113	Y113	Z113	X114	Y114	Z114	X115	Y115	Z115	X116	Y116	Z116	X117	Y117	Z117	X118	Y118	Z118	X119	Y119	Z119	X120	Y120	Z120	X121	Y121	Z121	X122	Y122	Z122	X123	Y123	Z123	X124	Y124	Z124	X125	Y125	Z125	X126	Y126	Z126	X127	Y127	Z127	X128	Y128	Z128	

1	0	310.3592224121095	988.8481445312505	312.8842773437501	314.059051513672	978.1237182617192	50.64873123168948	506.5726623535159	991.8419799804692	234.0696411132814	509.0238342285159	989.0063476562505	131.7344360351563	341.6748657226564	651.598571777344	370.5055541992189	257.1547851562501	786.985473632813	314.9895629882814	239.0637969970704	623.3198242187502	308.9003906250001	325.0608215332032	490.6408996582034	363.915985107422	303.4381713867189	469.6969909667971	239.528045654297	400.884460449219	263.068572998047	366.3706359863282	288.5330200195314	376.2745971679689	295.9274291992189	347.4443664550782	207.777069091797	291.5679626464845	431.0233459472659	88.13282012939456	348.5512084960939	392.2406311035159	93.077018737793	264.5946655273439	466.066589355469	57.88298416137698	299.4153442382814	277.6146240234376	55.96962356567386	339.3447875976564	353.4190063476564	686.5621337890627	-1.155694961547852	258.7124328613282	778.552612304688	66.65727233886722	244.6199035644532	612.1468505859377	68.25266265869143	314.9965209960939	474.6279907226565	26.42486381530763	293.0438537597657	468.4654541015627	141.0842590332032	373.5604553222657	302.803192138672	10.84493923187256	309.8355102539064	317.1148071289064	100.9181137084962	345.0453186035157	184.3323669433594	90.94010925292972	419.986755371094	78.63673400878909	44.916316986084	390.479675292969	93.30934143066409	130.7054138183594	463.4995422363284	50.65390396118167	95.45844268798831	274.4635009765626	47.51502990722658	65.58454132080081	356.628143310547	896.6539916992192	185.9443054199219	194.6173248291017	890.8610229492192	183.8954467773438	354.3428649902345	903.278198242188	347.9201049804689	350.924285888672	1058.542358398438	179.2432098388672	312.9534912109376	486.4260253906252	307.3505859375001	-92.6026306152344	538.754089355469	390.2571105957034	400.0506591796877	516.7470703125002	714.2684326171877	357.962371826172	899.257690429688	266.9551696777345	413.0166931152346	90.42839813232425	309.5705871582032	67.66763305664065	4.029197692871096	464.0123596191409	562.2802734375002	130.1409759521485	665.5570068359377	317.951141357422	466.6480102539065	307.4614562988282	286.8666381835939	78.33064270019534	349.855438232422	281.1337280273439	263.0701293945314	331.6502990722657	324.9765930175782	97.32775878906256	530.6307373046877	468.5469665527346	80.17514801025393	311.3608398437501	226.3065338134767	77.71576690673831	362.686981201172	224.3955535888673	139.2956085205079	356.6185913085939	239.0098419189454	84.04814147949222	422.9454040527346	286.8666381835939	78.33061218261722	349.8554687500001	301.3599548339845	473.3677673339846	82.2702331542969	-107.7138671875001	531.1245727539065	-16.3161849975586	200.6313476562501	464.0588684082034	494.7792053222659	355.2939758300782	894.0505371093755	104.9334869384766	406.1805114746096	85.50200653076175	85.05677032470706	52.28253173828128	-10.89482879638672	-20.17938232421876	303.9227600097657	60.50196838378909	451.8388366699221	306.6297912597657	453.867858886719	82.41031646728518	279.0585021972657	72.14945983886722	52.06453323364261	274.2346801757814	256.1181030273439	63.2590255737305	250.5292358398439	60.3407897949219	233.8327026367189	461.1459960937502	75.17295074462893	80.84034729003909	218.3626708984376	71.14163970947268	42.4726028442383	216.7547302246095	132.4645080566407	46.20410919189455	208.8529052734376	67.20540618896487	103.061996459961	279.0585021972657	72.14946746826175	52.06454086303714	365.6310119628907	910.6270141601567	187.2429962158204	205.2239532470704	904.6958007812505	185.1742858886719	363.3199157714845	917.1921997070317	347.622039794922	359.790008544922	1070.912963867188	180.5974273681641	315.4609985351564	481.2080078125002	307.3590087890626	-112.2201843261719	536.994079589844	370.786346435547	383.2986450195314	513.0001220703127	736.8164062500002	365.7915344238282	912.3964843750005	267.488494873047	412.8630065917971	90.59390258789065	309.6560058593751	54.75561523437503	2.246070861816407	470.9819335937502	568.8890380859377	131.6694335937501	678.4932861328127	315.4604492187501	481.2084655761721	307.358612060547	281.6170043945314	76.47239685058597	325.717987060547	277.6111755371095	261.9103393554689	316.2432861328126	319.8452148437501	86.56994628906253	507.1833801269534	463.3189697265627	78.43620300292972	287.3306884765626	221.0500030517579	75.81780242919925	338.5140075683595	219.7147216796876	137.6303710937501	335.3557739257814	233.7927246093751	79.18364715576175	399.0024108886721	281.6172485351564	76.4724044799805	325.7182617187501	304.1390075683595	471.6610107421877	82.72840118408206	-126.2030639648438	536.368835449219	4.568199157714846	223.3015747070314	458.8813781738284	517.230895996094	365.4695129394532	908.856567382813	106.9975280761719	406.1919860839846	85.69309997558597	85.02400207519534	35.45620727539064	-12.98920440673829	-25.46495056152345	298.8082885742189	59.58145904541018	468.661804199219	304.1393127441407	471.6607666015627	82.72874450683597	270.3099975585939	70.57929992675784	75.934196472168	266.2673645019532	261.8518676757814	80.59188079833987	240.7049713134767	65.35134124755862	264.9300842285157	459.3349609375002	73.85119628906253	105.6342697143555	207.300994873047	69.48850250244143	66.03450012207034	205.9534454345704	133.2459564208985	67.58705902099612	197.4326629638673	67.74584960937503	129.0330657958985	270.3092346191407	70.57913208007815	75.93451690673831	-3.314685583114626	-12.57437896728516	8.173077583312992	0.8030388355255131	-10.73180961608887	21.01856803894044	0	0	13.2320032119751	0.008051011711359028	10.75355625152588	13.47292518615723	-5.277970314025881	-12.33760833740235	9.418892860412601	-1.947141766548158	-2.429331064224244	22.60466384887696	0.006799126975238327	6.618009090423588	14.15422725677491	0	0	14.0579652786255	2.368837356567384	0.7247084975242617	2.017878532409669	-2.368837356567384	-0.7247084975242617	2.017878532409669	-5.750611305236818	-11.96237754821778	-89.41829681396487	-3.524209260940554	-8.979128837585453	-89.04871368408206	-3.014179944992067	-9.493909835815433	8.681320190429691	1.575180053710938	-13.91209983825684	21.15099906921387	-2.731199979782105	11.00450038909912	13.26690006256104	-5.352350234985353	-9.049630165100101	10.17280006408692	-0.7528150081634526	-5.45496988296509	23.03750038146973	-2.094840049743653	6.757530212402347	13.79810047149659	2.98885989189148	-168.072006225586	-90.61920166015628	1.411720037460328	-171.072006225586	-90.99189758300784	177.6560058593751	0.8255720138549809	-177.8809967041016	-177.6560058593751	-0.8255720138549809	-177.8809967041016	365.790985107422	912.3969726562505	267.488006591797	315.4609985351564	481.2080078125002	307.3590087890626	365.4700012207032	908.8560180664067	106.9970016479493	304.1390075683595	471.6610107421877	82.72840118408206	412.8630065917971	90.59390258789065	309.6560058593751	406.1919860839846	85.69309997558597	85.02400207519534	
2	0.01	310.4837341308595	988.8605346679692	312.9624633789064	314.1026611328126	978.1310424804692	50.63556671142581	506.633239746094	991.8429565429692	234.0039215087892	509.0889587402346	989.016967773438	131.6905975341797	341.7983398437501	651.611022949219	370.4991149902345	257.2539978027345	787.0172729492192	315.0125732421876	239.0911407470704	623.309020996094	308.9363403320314	325.2810974121095	490.694274902344	364.0352478027345	303.5519409179689	469.7222595214846	239.5605316162111	400.9605712890627	263.0711669921876	366.3634338378907	288.5946655273439	376.298065185547	295.9818725585939	347.460418701172	207.7828521728517	291.5839233398439	431.033142089844	88.13856506347659	348.5393066406251	392.2187500000002	93.06184387207034	264.6083984375001	466.0720825195315	57.87918853759768	299.4397277832032	277.631072998047	55.99683380126956	339.3130187988282	353.4258117675782	686.586608886719	-1.167218208312989	258.7217102050782	778.5571289062505	66.6705017089844	244.6458892822267	612.163269042969	68.28789520263675	315.0651855468751	474.6445312500002	26.45638465881349	293.1225891113282	468.4923095703127	141.1151428222657	373.610076904297	302.7994384765626	10.87184619903565	310.4425354003907	316.9687500000001	100.8569793701172	344.9413146972657	184.3652954101563	91.00650024414065	420.000671386719	78.6513595581055	44.9236183166504	390.4913330078127	93.32362365722659	130.7304992675782	463.276306152344	50.47539138793948	95.28752136230472	274.4207763671876	47.54677200317384	65.53964996337893	356.7125549316407	896.663452148438	185.963363647461	194.7010345458986	890.8723144531255	183.9652252197266	354.4780273437501	903.2885131835942	347.9398498535157	351.0084533691407	1058.551879882813	179.2632293701172	313.2218017578126	486.4558715820315	307.4613647460939	-92.39831542968753	538.6215820312502	390.0151672363284	399.9675903320315	516.9441528320315	714.4129638671877	358.0721435546876	899.2673339843755	266.9738159179689	413.0096740722659	90.42469787597659	309.565887451172	67.72662353515628	4.245521545410158	464.189147949219	562.500427246094	129.9829864501954	665.4355468750002	318.2061462402345	466.6743774414065	307.5664367675782	286.8458862304689	78.3432540893555	349.8129272460939	281.1605224609376	263.0898437500001	331.6647949218751	324.9114379882814	97.27432250976568	530.6045532226565	468.537048339844	80.15803527832034	311.3679504394532	226.282196044922	77.73828125000003	362.6279296875001	224.3870391845704	139.3204650878907	356.5786132812501	238.9707183837892	84.04858398437503	422.891784667969	286.8458862304689	78.34324645996097	349.8129272460939	301.4809875488282	473.3781738281252	82.31437683105472	-107.6856689453126	531.0600585937502	-15.88407135009766	201.1418609619142	464.0242309570315	494.906188964844	355.3529663085939	894.0595703125005	104.9529647827149	406.1959533691409	85.51518249511722	85.06483459472659	52.30316162109378	-10.77488708496094	-20.17552185058594	303.9364624023439	60.50798797607425	451.8142089843752	306.7459106445314	453.8767700195315	82.45265960693362	279.0433654785157	72.3059997558594	52.13280105590823	274.4177246093751	256.2760314941407	63.38733673095706	250.5937805175782	60.47018814086917	233.9116973876954	461.1484375000002	75.12992858886722	80.81730651855472	218.3416748046876	71.36468505859378	42.57127761840822	216.7997894287111	132.6880187988282	46.32276916503908	208.8584899902345	67.41943359375003	103.1642456054688	279.0433654785157	72.30600738525393	52.13277053833011	365.6709899902345	910.6539916992192	187.2160034179688	205.2619934082032	904.7568969726567	185.2006378173829	363.4153137207032	917.2001342773442	347.5966186523439	359.8615722656251	1070.942016601563	180.5919647216797	315.5750122070314	481.2290039062502	307.4219970703126	-112.0885620117188	536.9932250976565	370.9870605468751	383.5579528808595	513.098327636719	736.8505859375002	365.8590393066407	912.4145507812505	267.4617919921876	412.8699951171877	90.58709716796878	309.6400146484376	54.80288696289065	2.322036743164063	471.100524902344	569.055603027344	131.5807495117188	678.418884277344	315.575164794922	481.228942871094	307.4224548339845	281.6199951171876	76.4934005737305	325.6950073242189	277.6589355468751	261.9343872070314	316.2611694335939	319.8448791503907	86.54165649414065	507.1638488769534	463.3236389160159	78.4220886230469	287.3138732910157	221.0520019531251	75.85040283203128	338.488006591797	219.731658935547	137.6640014648438	335.3434143066407	233.7936096191407	79.199821472168	398.9775390625002	281.6198120117189	76.49330139160159	325.694305419922	304.3760070800782	471.6650085449221	82.73600006103518	-126.0906372070313	536.132263183594	5.064392089843752	224.034149169922	458.8052978515627	517.328063964844	365.4832153320314	908.8937988281255	106.9704666137696	406.1659851074221	85.62760162353518	85.01409912109378	35.28259277343751	-12.81720733642579	-25.19082641601564	299.0433959960939	59.64556121826175	468.7336120605471	304.3757324218751	471.6645812988284	82.73636627197268	270.269012451172	70.6716003417969	75.88780212402347	266.4437561035157	261.9476013183595	80.5878601074219	240.6130981445314	65.43466949462893	264.875457763672	459.2905273437502	73.72084808349612	105.6334991455079	207.2619934082032	69.65509796142581	65.9725036621094	205.9869079589845	133.4136962890626	67.53918457031253	197.3767089843751	67.90945434570315	128.9683227539063	270.2691040039064	70.67151641845706	75.88772583007815	-3.325172185897829	-12.5071201324463	8.152577400207523	0.8613978028297429	-10.80515289306641	20.96555137634278	0	0	13.20780277252198	0.007920959964394573	10.80649280548096	13.45066833496094	-5.277471065521242	-12.30218029022218	9.408967018127445	-1.929126143455506	-2.48108720779419	22.58232307434083	0.006776898633688692	6.644619941711429	14.20328044891358	0	0	14.10588741302491	2.368497371673585	0.7067723870277407	2.017968654632569	-2.368497371673585	-0.7067723870277407	2.017968654632569	-5.732197761535646	-11.94673252105713	-89.42768859863284	-3.542824268341066	-8.950425148010257	-89.11157226562503	-3.030430078506472	-9.491820335388187	8.664750099182132	1.594300031661988	-13.91209983825684	21.13369941711426	-2.736880064010621	11.02960014343262	13.26580047607423	-5.344490051269533	-9.007820129394535	10.13000011444092	-0.7219229936599734	-5.471749782562258	22.96980094909669	-2.081990003585816	6.700160026550297	13.82399940490723	2.975889921188355	-168.0729980468751	-90.60820007324222	1.424469947814942	-171.0579986572266	-90.92420196533206	177.6629943847657	0.805824995040894	-177.8930053710938	-177.6629943847657	-0.805824995040894	-177.8930053710938	365.8590087890626	912.4149780273442	267.4620056152345	315.5750122070314	481.2290039062502	307.4219970703126	365.4830017089845	908.8939819335942	106.9710006713868	304.3760070800782	471.6650085449221	82.73600006103518	412.8699951171877	90.58709716796878	309.6400146484376	406.1659851074221	85.62760162353518	85.01409912109378	
3	0.02	310.6128234863282	988.8446655273442	312.9439086914064	314.1492614746095	978.077758789063	50.66333389282229	506.7335510253909	991.888305664063	233.9727630615236	509.141052246094	989.049926757813	131.6487274169922	341.9073486328126	651.6215820312502	370.514129638672	257.3511352539064	787.0187988281255	315.049041748047	239.2134094238282	623.3408813476565	308.9790039062501	325.2094726562501	490.5838928222659	363.9321289062501	303.643524169922	469.7260742187502	239.6128234863282	401.0061950683596	263.1153564453126	366.3618469238282	288.5664367675782	376.3032836914064	295.9784545898439	347.4403686523439	207.8389739990236	291.5985717773439	431.0117187500002	88.14485168457034	348.5588989257814	392.1980895996096	93.09061431884768	264.6123962402345	466.0979919433596	57.8933029174805	299.4191894531251	277.6384277343751	55.9826583862305	339.3372192382814	353.4989013671876	686.567565917969	-1.15925133228302	258.7695922851564	778.5466918945317	66.68472290039065	244.6860504150392	612.1734619140627	68.31978607177737	315.0878295898439	474.6347351074221	26.48704528808595	293.1145019531251	468.4768066406252	141.1044464111329	373.6319580078126	302.844940185547	10.84132480621338	310.4933166503907	316.9949035644532	100.8759384155274	345.0775756835939	184.324447631836	90.93556213378909	420.0059509277346	78.6559753417969	44.9166717529297	390.7207031250002	93.31189727783206	130.726303100586	463.3670349121096	50.55340194702151	95.41998291015628	274.468719482422	47.51833724975587	65.61167907714847	356.8341064453126	896.6459960937505	185.9668579101563	194.8241119384767	890.7941284179692	184.0226287841797	354.650115966797	903.2953491210942	347.9430541992189	351.0674438476564	1058.531127929688	179.2434844970704	313.056610107422	486.3793945312502	307.3757324218751	-92.47937011718753	538.8829345703127	390.6141052246096	400.4956359863284	516.630798339844	714.2957763671877	358.2192382812501	899.263061523438	266.9764404296876	412.9914855957034	90.44105529785159	309.5845947265626	67.75561523437503	4.165618896484377	464.1253051757815	562.3641357421877	130.1279602050782	665.4313964843752	318.0488891601564	466.6000976562502	307.486053466797	286.8385009765626	78.34471130371097	349.8607482910157	281.1107788085939	263.0849609375001	331.6612854003907	324.9370117187501	97.33511352539068	530.6391601562502	468.5213623046877	80.18659210205081	311.378143310547	226.2775268554689	77.73072814941409	362.6882934570314	224.3682861328126	139.3108062744141	356.6218261718751	238.977020263672	84.06083679199222	422.9477844238284	286.8385009765626	78.34468078613284	349.8607482910157	301.4959716796876	473.3752746582034	82.34333038330081	-107.6282043457032	531.1314697265627	-15.90914154052735	201.1047363281251	464.0725097656252	494.9048767089846	355.4490051269532	894.028930664063	104.9572906494141	406.295349121094	85.51750183105472	85.09053039550784	52.1685485839844	-10.90715026855469	-19.29752349853516	304.864227294922	60.71028137207034	452.101013183594	306.7649230957032	453.8750610351565	82.48146057128909	279.1582641601564	72.22881317138675	52.13074874877933	274.4454956054689	256.2040405273439	63.26363372802737	250.6619567871095	60.498893737793	233.9092254638673	461.2537536621096	75.15460205078128	80.86553955078128	218.4597625732423	71.25355529785159	42.55247116088869	216.8888244628907	132.5786285400391	46.26343154907228	208.9609832763673	67.34357452392581	103.1452941894532	279.1582641601564	72.22882843017581	52.13074493408206	365.7879943847657	910.6430053710942	187.2250061035157	205.3806457519532	904.6840209960942	185.2612457275391	363.581268310547	917.1921997070317	347.606170654297	359.9146423339845	1070.928588867188	180.5989227294922	315.550994873047	481.2330017089846	307.3689880371095	-112.0538940429688	537.169616699219	371.1768798828126	383.779998779297	512.9841308593752	736.7673339843752	366.0005187988282	912.4049682617192	267.4705505371095	412.8710021972659	90.59790039062503	309.665985107422	54.87451171875003	2.359863281250001	471.2978515625002	569.2030029296877	131.7129516601563	678.369323730469	315.5513000488282	481.2331237792971	307.3692932128907	281.6229858398439	76.47440338134768	325.717010498047	277.6166992187501	261.9129028320314	316.2541809082032	319.8358764648439	86.56024932861331	507.1862487792971	463.3281250000002	78.44194030761722	287.3450927734376	221.0549926757814	75.81849670410159	338.5069885253907	219.7195587158204	137.6312561035157	335.3527221679689	233.7926025390626	79.18044281005862	398.9966735839846	281.6232910156251	76.47434234619143	325.7163696289064	304.3989868164064	471.6600036621096	82.75879669189456	-126.0575561523438	536.1923828125002	5.085235595703127	224.0550842285157	458.8258361816409	517.351257324219	365.574676513672	908.8799438476567	106.9802322387696	406.247009277344	85.63760375976565	84.96499633789065	35.33181762695314	-12.85330963134766	-25.09181213378908	299.289031982422	59.61146545410159	468.7275085449221	304.3993225097657	471.6598815917971	82.7585372924805	270.3460083007814	70.6288986206055	75.96620178222659	266.4514465332032	261.9039916992189	80.647575378418	240.867645263672	65.40262603759768	264.9819335937501	459.3938903808596	73.75444030761722	105.536003112793	207.3300018310548	69.58740234375003	66.10929870605472	206.0318145751954	133.3457031250001	67.66975402832034	197.5038909912111	67.84531402587893	129.1144714355469	270.3458862304689	70.62924957275393	75.96588897705081	-3.302013874053957	-12.58529949188233	8.217647552490238	0.7869896292686467	-10.71163368225098	21.02417182922364	0	0	13.21830368041993	0.008161172270774845	10.77962398529053	13.4601526260376	-5.284868717193605	-12.32649803161622	9.440962791442875	-1.940976858139039	-2.341900825500489	22.60378074645997	0.006954596377909187	6.499442577362064	14.1783151626587	0	0	14.08530044555665	2.376701831817628	0.6876965165138247	2.040119409561158	-2.376701831817628	-0.6876965165138247	2.040119409561158	-5.748730659484865	-11.95859050750733	-89.41914367675784	-3.504666090011598	-8.966236114501957	-89.07949829101565	-3.019599914550783	-9.507679939270023	8.710490226745609	1.559669971466065	-13.91069984436036	21.15660095214844	-2.740950107574464	11.05679988861084	13.25629997253419	-5.346089839935305	-9.02412033081055	10.16020011901856	-0.7366260290145876	-5.450550079345705	22.98480033874512	-2.088599920272828	6.729589939117435	13.81089973449708	2.984980106353761	-168.0760040283204	-90.62039184570315	1.418630003929139	-171.1109924316407	-90.94689941406253	177.6620025634766	0.7883319258689885	-177.8709869384766	-177.6620025634766	-0.7883319258689885	-177.8709869384766	366.0010070800782	912.4050292968755	267.4710083007814	315.550994873047	481.2330017089846	307.3689880371095	365.5750122070314	908.880004882813	106.9800033569337	304.3989868164064	471.6600036621096	82.75879669189456	412.8710021972659	90.59790039062503	309.665985107422	406.247009277344	85.63760375976565	84.96499633789065	
